<svg width="20" height="20" viewBox="0 0 20 20" fill="none" xmlns="http://www.w3.org/2000/svg">
<path fill-rule="evenodd" clip-rule="evenodd" d="M10 20C15.5229 20 20 15.5229 20 10C20 4.47705 15.5229 0 10 0C4.47714 0 0 4.47705 0 10C0 15.5229 4.47714 20 10 20ZM7.33371 5.75C9.70218 4.3125 12.7563 5 14.2521 7.3125C15.6857 9.6875 15.0001 12.75 12.6939 14.25C11.8837 14.75 10.9487 15 10.0138 15C9.14124 15 8.26862 14.75 7.45837 14.3125L7.27136 14.1875L5.40152 14.6875L5.90015 12.8125L5.77548 12.625C4.27963 10.3125 5.02756 7.1875 7.33371 5.75ZM11.946 12.8125C12.3823 12.75 12.6939 12.5 12.9432 12.125C13.0679 11.9375 13.0679 11.6875 13.0056 11.5C12.9432 11.4375 12.8186 11.375 12.6939 11.3125L11.6967 10.8125C11.572 10.75 11.5097 10.75 11.385 10.875C11.2604 11 10.9487 11.3125 10.8864 11.4375C10.8241 11.5625 10.6994 11.5625 10.5748 11.5C10.3025 11.3828 10.0545 11.2417 9.8157 11.0762C9.67178 10.9766 9.53116 10.8677 9.39053 10.75C9.07889 10.4375 8.76724 10.0625 8.51794 9.6875C8.4556 9.5625 8.51794 9.4375 8.64261 9.375C8.67377 9.34375 8.70493 9.29688 8.73608 9.25C8.76724 9.20312 8.7984 9.15625 8.82959 9.125C8.89191 9.0625 8.95422 8.9375 8.89191 8.8125C8.95422 8.75 8.95422 8.625 8.89191 8.5625C8.89191 8.51416 8.70453 8.05225 8.56226 7.70166L8.4556 7.4375C8.39328 7.1875 8.26862 7.1875 8.14398 7.1875H7.83234C7.70767 7.1875 7.58301 7.25 7.45837 7.375C7.14673 7.6875 6.95975 8.125 6.95975 8.625C7.02206 9.1875 7.20905 9.75 7.58301 10.1875C8.2063 11.125 9.07889 11.9375 10.1385 12.4375C11.2001 12.8633 11.5836 12.8359 11.8281 12.8184C11.8706 12.8154 11.909 12.8125 11.946 12.8125Z" fill="#E76F00"/>
</svg>
